<svg width="24" height="24" viewBox="0 0 24 24" fill="none" xmlns="http://www.w3.org/2000/svg">
<path d="M15.5298 14.4704L13.0595 12.0001L15.5298 9.52976C15.8204 9.23913 15.8204 8.76101 15.5298 8.47038C15.2392 8.17976 14.761 8.17976 14.4704 8.47038L12.0001 10.9407L9.5298 8.47038C9.23917 8.17976 8.79855 8.13757 8.47042 8.47038C8.13761 8.8032 8.18917 9.24851 8.47042 9.52976L10.9407 12.0001L8.47042 14.4704C8.15636 14.7844 8.17042 15.2344 8.47042 15.5298C8.77042 15.8298 9.23917 15.8204 9.5298 15.5298L12.0001 13.0594L14.4704 15.5298C14.761 15.8204 15.2392 15.8204 15.5298 15.5298C15.8251 15.2391 15.8251 14.761 15.5298 14.4704Z" fill="white"/>
<path d="M12 3.5625C14.2547 3.5625 16.3734 4.43906 17.9672 6.03281C19.5609 7.62656 20.4375 9.74531 20.4375 12C20.4375 14.2547 19.5609 16.3734 17.9672 17.9672C16.3734 19.5609 14.2547 20.4375 12 20.4375C9.74531 20.4375 7.62656 19.5609 6.03281 17.9672C4.43906 16.3734 3.5625 14.2547 3.5625 12C3.5625 9.74531 4.43906 7.62656 6.03281 6.03281C7.62656 4.43906 9.74531 3.5625 12 3.5625ZM12 2.25C6.61406 2.25 2.25 6.61406 2.25 12C2.25 17.3859 6.61406 21.75 12 21.75C17.3859 21.75 21.75 17.3859 21.75 12C21.75 6.61406 17.3859 2.25 12 2.25Z" fill="white"/>
</svg>
