<svg width="68" height="68" viewBox="0 0 68 68" fill="none" xmlns="http://www.w3.org/2000/svg">
<path d="M34.0013 17.3333C33.1172 17.3333 32.2694 17.6845 31.6443 18.3096C31.0192 18.9347 30.668 19.7826 30.668 20.6666V34C30.668 34.884 31.0192 35.7319 31.6443 36.357C32.2694 36.9821 33.1172 37.3333 34.0013 37.3333C34.8854 37.3333 35.7332 36.9821 36.3583 36.357C36.9834 35.7319 37.3346 34.884 37.3346 34V20.6666C37.3346 19.7826 36.9834 18.9347 36.3583 18.3096C35.7332 17.6845 34.8854 17.3333 34.0013 17.3333ZM34.0013 44C33.342 44 32.6976 44.1955 32.1494 44.5617C31.6012 44.928 31.174 45.4486 30.9217 46.0577C30.6694 46.6668 30.6034 47.337 30.732 47.9836C30.8606 48.6302 31.1781 49.2241 31.6443 49.6903C32.1105 50.1565 32.7044 50.474 33.351 50.6026C33.9976 50.7312 34.6678 50.6652 35.2769 50.4129C35.886 50.1606 36.4066 49.7334 36.7729 49.1852C37.1391 48.637 37.3346 47.9926 37.3346 47.3333C37.3346 46.4492 36.9834 45.6014 36.3583 44.9763C35.7332 44.3512 34.8854 44 34.0013 44ZM66.368 19.2L48.8013 1.63329C48.1625 1.02418 47.3172 0.678904 46.4346 0.666626H21.568C20.6854 0.678904 19.8401 1.02418 19.2013 1.63329L1.63464 19.2C1.02552 19.8387 0.680247 20.6841 0.667969 21.5666V46.4333C0.680247 47.3158 1.02552 48.1612 1.63464 48.8L19.2013 66.3666C19.8401 66.9757 20.6854 67.321 21.568 67.3333H46.4346C47.3172 67.321 48.1625 66.9757 48.8013 66.3666L66.368 48.8C66.9771 48.1612 67.3224 47.3158 67.3346 46.4333V21.5666C67.3224 20.6841 66.9771 19.8387 66.368 19.2V19.2ZM60.668 45.0333L45.0346 60.6666H22.968L7.33464 45.0333V22.9666L22.968 7.33329H45.0346L60.668 22.9666V45.0333Z" fill="#49BBBD"/>
</svg>
