<svg width="90" height="83" viewBox="0 0 90 83" fill="none" xmlns="http://www.w3.org/2000/svg">
<path d="M37.9645 4.94975C39.9171 2.99713 43.0829 2.99713 45.0355 4.94975L78.0502 37.9645C80.0029 39.9171 80.0029 43.0829 78.0503 45.0355L45.0355 78.0502C43.0829 80.0029 39.9171 80.0029 37.9645 78.0503L4.94975 45.0355C2.99713 43.0829 2.99713 39.9171 4.94975 37.9645L37.9645 4.94975Z" stroke="#00FFF0" stroke-width="2"/>
<path d="M23.056 40.736C23.056 38.5173 23.536 36.544 24.496 34.816C25.456 33.0667 26.7893 31.712 28.496 30.752C30.224 29.7707 32.176 29.28 34.352 29.28C37.0187 29.28 39.3013 29.984 41.2 31.392C43.0987 32.8 44.368 34.72 45.008 37.152H38.992C38.544 36.2133 37.904 35.4987 37.072 35.008C36.2613 34.5173 35.3333 34.272 34.288 34.272C32.6027 34.272 31.2373 34.8587 30.192 36.032C29.1467 37.2053 28.624 38.7733 28.624 40.736C28.624 42.6987 29.1467 44.2667 30.192 45.44C31.2373 46.6133 32.6027 47.2 34.288 47.2C35.3333 47.2 36.2613 46.9547 37.072 46.464C37.904 45.9733 38.544 45.2587 38.992 44.32H45.008C44.368 46.752 43.0987 48.672 41.2 50.08C39.3013 51.4667 37.0187 52.16 34.352 52.16C32.176 52.16 30.224 51.68 28.496 50.72C26.7893 49.7387 25.456 48.384 24.496 46.656C23.536 44.928 23.056 42.9547 23.056 40.736ZM61.095 52L56.423 43.52H55.111V52H49.639V29.536H58.823C60.5937 29.536 62.0977 29.8453 63.335 30.464C64.5937 31.0827 65.5323 31.936 66.151 33.024C66.7697 34.0907 67.079 35.2853 67.079 36.608C67.079 38.1013 66.6523 39.4347 65.799 40.608C64.967 41.7813 63.7297 42.6133 62.087 43.104L67.271 52H61.095ZM55.111 39.648H58.503C59.5057 39.648 60.2523 39.4027 60.743 38.912C61.255 38.4213 61.511 37.728 61.511 36.832C61.511 35.9787 61.255 35.3067 60.743 34.816C60.2523 34.3253 59.5057 34.08 58.503 34.08H55.111V39.648ZM79.922 52.224C78.2793 52.224 76.8073 51.9573 75.506 51.424C74.2047 50.8907 73.1593 50.1013 72.37 49.056C71.602 48.0107 71.1967 46.752 71.154 45.28H76.978C77.0633 46.112 77.3513 46.752 77.842 47.2C78.3327 47.6267 78.9727 47.84 79.762 47.84C80.5727 47.84 81.2127 47.6587 81.682 47.296C82.1513 46.912 82.386 46.3893 82.386 45.728C82.386 45.1733 82.194 44.7147 81.81 44.352C81.4473 43.9893 80.9887 43.6907 80.434 43.456C79.9007 43.2213 79.1327 42.9547 78.13 42.656C76.6793 42.208 75.4953 41.76 74.578 41.312C73.6607 40.864 72.8713 40.2027 72.21 39.328C71.5487 38.4533 71.218 37.312 71.218 35.904C71.218 33.8133 71.9753 32.1813 73.49 31.008C75.0047 29.8133 76.978 29.216 79.41 29.216C81.8847 29.216 83.8793 29.8133 85.394 31.008C86.9087 32.1813 87.7193 33.824 87.826 35.936H81.906C81.8633 35.2107 81.5967 34.6453 81.106 34.24C80.6153 33.8133 79.986 33.6 79.218 33.6C78.5567 33.6 78.0233 33.7813 77.618 34.144C77.2127 34.4853 77.01 34.9867 77.01 35.648C77.01 36.3733 77.3513 36.9387 78.034 37.344C78.7167 37.7493 79.7833 38.1867 81.234 38.656C82.6847 39.1467 83.858 39.616 84.754 40.064C85.6713 40.512 86.4607 41.1627 87.122 42.016C87.7833 42.8693 88.114 43.968 88.114 45.312C88.114 46.592 87.7833 47.7547 87.122 48.8C86.482 49.8453 85.5433 50.6773 84.306 51.296C83.0687 51.9147 81.6073 52.224 79.922 52.224Z" fill="white"/>
</svg>
