<svg width="24" height="24" viewBox="0 0 24 24" fill="none" xmlns="http://www.w3.org/2000/svg">
<path d="M20.25 8.25H3.75C3.3375 8.25 3 7.9125 3 7.5C3 7.0875 3.3375 6.75 3.75 6.75H20.25C20.6625 6.75 21 7.0875 21 7.5C21 7.9125 20.6625 8.25 20.25 8.25ZM20.25 12.75H3.75C3.3375 12.75 3 12.4125 3 12C3 11.5875 3.3375 11.25 3.75 11.25H20.25C20.6625 11.25 21 11.5875 21 12C21 12.4125 20.6625 12.75 20.25 12.75ZM20.25 17.25H3.75C3.3375 17.25 3 16.9125 3 16.5C3 16.0875 3.3375 15.75 3.75 15.75H20.25C20.6625 15.75 21 16.0875 21 16.5C21 16.9125 20.6625 17.25 20.25 17.25Z" fill="white"/>
</svg>
