<svg width="18" height="16" viewBox="0 0 18 16" fill="none" xmlns="http://www.w3.org/2000/svg">
<path d="M8.86328 5.14928L11.44 7.72597L11.4522 7.591C11.4522 6.2372 10.352 5.13701 8.99825 5.13701L8.86328 5.14928Z" fill="black"/>
<path d="M8.99795 3.50094C11.2556 3.50094 13.0879 5.33326 13.0879 7.59093C13.0879 8.11854 12.9816 8.62161 12.7976 9.08376L15.1902 11.4764C16.4254 10.4457 17.3988 9.1124 18 7.59093C16.5808 3.99994 13.092 1.45596 8.99798 1.45596C7.85278 1.45596 6.75669 1.66045 5.73828 2.02855L7.50515 3.79132C7.96727 3.61137 8.47034 3.50094 8.99795 3.50094Z" fill="black"/>
<path d="M0.817983 1.27202L2.68301 3.13706L3.05521 3.50926C1.70552 4.56447 0.638037 5.96735 0 7.59104C1.41515 11.182 4.90798 13.726 8.99797 13.726C10.2659 13.726 11.4765 13.4806 12.5849 13.0348L12.9326 13.3825L15.317 15.771L16.36 14.7321L1.86093 0.22908L0.817983 1.27202ZM5.34153 5.79146L6.60533 7.05527C6.56852 7.23115 6.54398 7.40699 6.54398 7.59104C6.54398 8.94484 7.64417 10.045 8.99797 10.045C9.18202 10.045 9.3579 10.0205 9.52968 9.98368L10.7935 11.2475C10.2495 11.5174 9.64421 11.681 8.99797 11.681C6.7403 11.681 4.90798 9.84871 4.90798 7.59104C4.90798 6.94484 5.07159 6.33951 5.34153 5.79146Z" fill="black"/>
</svg>
