<svg width="40" height="26" viewBox="0 0 40 26" fill="none" xmlns="http://www.w3.org/2000/svg">
<path fill-rule="evenodd" clip-rule="evenodd" d="M20 0C26.9608 0 33.1922 3.77485 38.612 11.0872L38.9179 11.5049L40 13L38.9179 14.4951C33.4271 22.0814 27.0922 26 20 26C13.0392 26 6.8078 22.2252 1.38804 14.9128L1.08213 14.4951L0 13L1.08213 11.5049C6.57291 3.91864 12.9078 0 20 0ZM20 4C14.81 4 9.98619 6.77894 5.46166 12.5395L5.10522 13L5.46183 13.4607C9.77056 18.9464 14.3507 21.7282 19.26 21.981L19.6383 21.9955L20 22C25.19 22 30.0138 19.2211 34.5384 13.4605L34.8938 13L34.5382 12.5393C30.2295 7.05357 25.6493 4.27181 20.74 4.01898L20.3617 4.00452L20 4ZM20 7C23.3137 7 26 9.68629 26 13C26 16.3137 23.3137 19 20 19C16.6863 19 14 16.3137 14 13C14 9.68629 16.6863 7 20 7Z" fill="black"/>
</svg>
